M48
; DRILL file {KiCad 9.0.2} date 2025-07-27T01:17:50+0100
; FORMAT={-:-/ absolute / metric / decimal}
; #@! TF.CreationDate,2025-07-27T01:17:50+01:00
; #@! TF.GenerationSoftware,Kicad,Pcbnew,9.0.2
; #@! TF.FileFunction,Plated,1,2,PTH
FMAT,2
METRIC
; #@! TA.AperFunction,Plated,PTH,ViaDrill
T1C0.300
; #@! TA.AperFunction,Plated,PTH,ComponentDrill
T2C0.600
; #@! TA.AperFunction,Plated,PTH,ComponentDrill
T3C0.800
; #@! TA.AperFunction,Plated,PTH,ComponentDrill
T4C1.000
; #@! TA.AperFunction,Plated,PTH,ComponentDrill
T5C1.050
; #@! TA.AperFunction,Plated,PTH,ComponentDrill
T6C1.200
; #@! TA.AperFunction,Plated,PTH,ComponentDrill
T7C1.600
; #@! TA.AperFunction,Plated,PTH,ComponentDrill
T8C2.524
; #@! TA.AperFunction,Plated,PTH,ComponentDrill
T9C2.800
%
G90
G05
T1
X126.475Y-81.325
X127.076Y-80.797
X140.741Y-95.682
X141.326Y-57.658
X141.326Y-68.631
X141.326Y-70.663
X141.326Y-76.022
X141.427Y-95.174
X142.52Y-89.23
X145.248Y-73.65
X145.591Y-60.274
X147.198Y-71.722
X147.295Y-75.041
X147.998Y-71.75
X148.877Y-72.663
X149.222Y-66.104
X150.292Y-69.942
X150.759Y-69.24
X150.774Y-57.633
X151.398Y-71.75
X151.74Y-60.681
X152.248Y-71.75
X153.238Y-60.706
X153.746Y-57.633
X156.202Y-74.163
X156.359Y-73.378
X156.769Y-74.727
X156.778Y-79.6
X156.778Y-80.45
X156.778Y-81.305
X157.316Y-66.104
X157.624Y-74.451
X157.972Y-78.791
X159.248Y-74.5
X159.248Y-77.05
X159.248Y-77.9
X159.539Y-60.198
X162.522Y-75.349
X163.88Y-81.94
X164.49Y-76.2
X167.488Y-57.506
X167.513Y-66.345
T3
X186.34Y-63.83
X186.34Y-66.37
X186.34Y-68.91
X186.34Y-71.45
X186.34Y-73.99
X186.34Y-76.53
X186.34Y-79.07
T4
X109.35Y-94.86
X109.35Y-97.4
X112.64Y-59.84
X112.64Y-62.38
X114.733Y-95.801
X114.733Y-102.301
X117.22Y-59.865
X117.22Y-62.405
X119.233Y-95.801
X119.233Y-102.301
X125.083Y-108.801
X127.583Y-108.801
X130.083Y-108.801
X137.433Y-96.551
X137.433Y-99.051
X137.433Y-101.551
X164.727Y-95.785
X164.727Y-102.285
X169.227Y-95.785
X169.227Y-102.285
X175.077Y-108.785
X177.577Y-108.785
X180.077Y-108.785
X187.427Y-96.535
X187.427Y-99.035
X187.427Y-101.535
X190.02Y-60.305
X190.02Y-62.845
X193.81Y-60.305
X193.81Y-62.845
X196.39Y-95.17
X196.39Y-97.71
T5
X91.314Y-75.169
X91.314Y-79.669
X97.814Y-75.169
X97.814Y-79.669
X100.814Y-84.669
X100.814Y-89.169
X100.815Y-65.684
X100.815Y-70.184
X107.314Y-84.669
X107.314Y-89.169
X107.315Y-65.684
X107.315Y-70.184
X110.312Y-75.184
X110.312Y-79.684
X116.812Y-75.184
X116.812Y-79.684
X147.701Y-96.922
X147.701Y-101.422
X154.201Y-96.922
X154.201Y-101.422
T6
X193.668Y-74.93
X193.668Y-77.43
X193.668Y-79.93
X208.168Y-74.93
X208.168Y-79.93
T7
X120.833Y-91.301
X120.833Y-106.801
X134.333Y-91.301
X134.333Y-106.801
X170.827Y-91.285
X170.827Y-106.785
X184.327Y-91.285
X184.327Y-106.785
T8
X201.168Y-71.73
X201.168Y-83.13
T9
X124.61Y-55.2
X124.61Y-87.7
X180.11Y-55.2
X180.11Y-87.7
T2
G00X148.18Y-54.705
M15
G01X148.18Y-53.905
M16
G05
G00X148.18Y-59.035
M15
G01X148.18Y-57.935
M16
G05
G00X156.82Y-54.705
M15
G01X156.82Y-53.905
M16
G05
G00X156.82Y-59.035
M15
G01X156.82Y-57.935
M16
G05
M30
