%TF.GenerationSoftware,KiCad,Pcbnew,9.0.2*%
%TF.CreationDate,2025-07-27T01:17:45+01:00*%
%TF.ProjectId,hexControllerV2,68657843-6f6e-4747-926f-6c6c65725632,rev?*%
%TF.SameCoordinates,Original*%
%TF.FileFunction,Paste,Top*%
%TF.FilePolarity,Positive*%
%FSLAX46Y46*%
G04 Gerber Fmt 4.6, Leading zero omitted, Abs format (unit mm)*
G04 Created by KiCad (PCBNEW 9.0.2) date 2025-07-27 01:17:45*
%MOMM*%
%LPD*%
G01*
G04 APERTURE LIST*
G04 Aperture macros list*
%AMRoundRect*
0 Rectangle with rounded corners*
0 $1 Rounding radius*
0 $2 $3 $4 $5 $6 $7 $8 $9 X,Y pos of 4 corners*
0 Add a 4 corners polygon primitive as box body*
4,1,4,$2,$3,$4,$5,$6,$7,$8,$9,$2,$3,0*
0 Add four circle primitives for the rounded corners*
1,1,$1+$1,$2,$3*
1,1,$1+$1,$4,$5*
1,1,$1+$1,$6,$7*
1,1,$1+$1,$8,$9*
0 Add four rect primitives between the rounded corners*
20,1,$1+$1,$2,$3,$4,$5,0*
20,1,$1+$1,$4,$5,$6,$7,0*
20,1,$1+$1,$6,$7,$8,$9,0*
20,1,$1+$1,$8,$9,$2,$3,0*%
G04 Aperture macros list end*
%ADD10R,1.800000X1.350000*%
%ADD11R,0.800000X0.800000*%
%ADD12R,3.400000X0.980000*%
%ADD13R,0.700000X1.525000*%
%ADD14R,3.100000X2.210000*%
%ADD15R,0.940000X1.430000*%
%ADD16R,1.430000X0.940000*%
%ADD17R,1.390000X0.960000*%
%ADD18R,1.390000X0.910000*%
%ADD19R,1.700000X1.300000*%
%ADD20R,1.800000X2.300000*%
%ADD21RoundRect,0.250000X-0.475000X0.250000X-0.475000X-0.250000X0.475000X-0.250000X0.475000X0.250000X0*%
%ADD22O,1.000000X1.800000*%
%ADD23O,1.000000X2.100000*%
%ADD24RoundRect,0.150000X0.150000X0.425000X-0.150000X0.425000X-0.150000X-0.425000X0.150000X-0.425000X0*%
%ADD25RoundRect,0.075000X0.075000X0.500000X-0.075000X0.500000X-0.075000X-0.500000X0.075000X-0.500000X0*%
%ADD26RoundRect,0.250000X-0.450000X0.262500X-0.450000X-0.262500X0.450000X-0.262500X0.450000X0.262500X0*%
%ADD27RoundRect,0.250000X0.262500X0.450000X-0.262500X0.450000X-0.262500X-0.450000X0.262500X-0.450000X0*%
%ADD28RoundRect,0.250000X0.475000X-0.250000X0.475000X0.250000X-0.475000X0.250000X-0.475000X-0.250000X0*%
%ADD29R,0.800000X0.400000*%
%ADD30R,0.400000X0.800000*%
%ADD31R,1.200000X1.200000*%
%ADD32RoundRect,0.375000X0.625000X0.375000X-0.625000X0.375000X-0.625000X-0.375000X0.625000X-0.375000X0*%
%ADD33RoundRect,0.500000X0.500000X1.400000X-0.500000X1.400000X-0.500000X-1.400000X0.500000X-1.400000X0*%
%ADD34RoundRect,0.250000X0.450000X-0.262500X0.450000X0.262500X-0.450000X0.262500X-0.450000X-0.262500X0*%
%ADD35RoundRect,0.250000X-0.262500X-0.450000X0.262500X-0.450000X0.262500X0.450000X-0.262500X0.450000X0*%
G04 APERTURE END LIST*
D10*
%TO.C,S2*%
X160324800Y-57515400D03*
X160324800Y-53365400D03*
%TD*%
%TO.C,S1*%
X144703800Y-57540800D03*
X144703800Y-53390800D03*
%TD*%
D11*
%TO.C,LED5*%
X151485600Y-104876600D03*
X149835600Y-104876600D03*
%TD*%
%TO.C,LED4*%
X129743200Y-55092600D03*
X129743200Y-53442600D03*
%TD*%
%TO.C,LED3*%
X132689600Y-53418200D03*
X132689600Y-55068200D03*
%TD*%
%TO.C,LED2*%
X135673000Y-55068200D03*
X135673000Y-53418200D03*
%TD*%
%TO.C,LED1*%
X138658600Y-53417200D03*
X138658600Y-55067200D03*
%TD*%
D12*
%TO.C,L1*%
X131239900Y-75565000D03*
X131239900Y-77935000D03*
%TD*%
D13*
%TO.C,IC2*%
X132550500Y-67296200D03*
X131280500Y-67296200D03*
X130010500Y-67296200D03*
X128740500Y-67296200D03*
X128740500Y-72720200D03*
X130010500Y-72720200D03*
X131280500Y-72720200D03*
X132550500Y-72720200D03*
D14*
X130645500Y-70008200D03*
%TD*%
D15*
%TO.C,C14*%
X126339600Y-77571600D03*
X127979600Y-77571600D03*
%TD*%
%TO.C,C13*%
X132136100Y-80111600D03*
X130496100Y-80111600D03*
%TD*%
D16*
%TO.C,C12*%
X138256200Y-72786200D03*
X138256200Y-71146200D03*
%TD*%
%TO.C,C11*%
X136321800Y-72760000D03*
X136321800Y-71120000D03*
%TD*%
%TO.C,C10*%
X134420800Y-72786200D03*
X134420800Y-71146200D03*
%TD*%
D17*
%TO.C,C6*%
X141325600Y-57658000D03*
X141325600Y-56078000D03*
%TD*%
D18*
%TO.C,C5*%
X142519400Y-84709000D03*
X142519400Y-83069000D03*
%TD*%
D17*
%TO.C,C4*%
X161925000Y-83362800D03*
X161925000Y-84942800D03*
%TD*%
D16*
%TO.C,C3*%
X163880800Y-83307400D03*
X163880800Y-84947400D03*
%TD*%
D19*
%TO.C,C2*%
X158363000Y-63804800D03*
X161063000Y-63804800D03*
%TD*%
D20*
%TO.C,C1*%
X146354800Y-66090800D03*
X143454800Y-66090800D03*
%TD*%
D21*
%TO.C,C9*%
X134553200Y-67233800D03*
X134553200Y-69133800D03*
%TD*%
D22*
%TO.C,J1*%
X148179600Y-54305200D03*
D23*
X148179600Y-58485200D03*
D22*
X156819600Y-54305200D03*
D23*
X156819600Y-58485200D03*
D24*
X155699600Y-59060200D03*
X154899600Y-59060200D03*
D25*
X154249600Y-59060200D03*
X153249600Y-59060200D03*
X151749600Y-59060200D03*
X150749600Y-59060200D03*
D24*
X150099600Y-59060200D03*
X149299600Y-59060200D03*
X149299600Y-59060200D03*
X150099600Y-59060200D03*
D25*
X151249600Y-59060200D03*
X152249600Y-59060200D03*
X152749600Y-59060200D03*
X153749600Y-59060200D03*
D24*
X154899600Y-59060200D03*
X155699600Y-59060200D03*
%TD*%
D26*
%TO.C,R5*%
X136661400Y-67237600D03*
X136661400Y-69062600D03*
%TD*%
D27*
%TO.C,R8*%
X124182500Y-70916800D03*
X126007500Y-70916800D03*
%TD*%
%TO.C,R6*%
X126341500Y-75590400D03*
X128166500Y-75590400D03*
%TD*%
%TO.C,R7*%
X124182500Y-68884800D03*
X126007500Y-68884800D03*
%TD*%
D28*
%TO.C,C8*%
X138744200Y-67188000D03*
X138744200Y-69088000D03*
%TD*%
D29*
%TO.C,IC1*%
X159247600Y-84700400D03*
X159247600Y-83850400D03*
X159247600Y-83000400D03*
X159247600Y-82150400D03*
X159247600Y-81300400D03*
X159247600Y-80450400D03*
X159247600Y-79600400D03*
X159247600Y-78750400D03*
X159247600Y-77900400D03*
X159247600Y-77050400D03*
X159247600Y-76200400D03*
X159247600Y-75350400D03*
X159247600Y-74500400D03*
X159247600Y-73650400D03*
X159247600Y-72800400D03*
D30*
X158197600Y-71750400D03*
X157347600Y-71750400D03*
X156497600Y-71750400D03*
X155647600Y-71750400D03*
X154797600Y-71750400D03*
X153947600Y-71750400D03*
X153097600Y-71750400D03*
X152247600Y-71750400D03*
X151397600Y-71750400D03*
X150547600Y-71750400D03*
X149697600Y-71750400D03*
X148847600Y-71750400D03*
X147997600Y-71750400D03*
X147147600Y-71750400D03*
X146297600Y-71750400D03*
D29*
X145247600Y-72800400D03*
X145247600Y-73650400D03*
X145247600Y-74500400D03*
X145247600Y-75350400D03*
X145247600Y-76200400D03*
X145247600Y-77050400D03*
X145247600Y-77900400D03*
X145247600Y-78750400D03*
X145247600Y-79600400D03*
X145247600Y-80450400D03*
X145247600Y-81300400D03*
X145247600Y-82150400D03*
X145247600Y-83000400D03*
X145247600Y-83850400D03*
X145247600Y-84700400D03*
D30*
X146297600Y-85750400D03*
X147147600Y-85750400D03*
X147997600Y-85750400D03*
X148847600Y-85750400D03*
X149697600Y-85750400D03*
X150547600Y-85750400D03*
X151397600Y-85750400D03*
X152247600Y-85750400D03*
X153097600Y-85750400D03*
X153947600Y-85750400D03*
X154797600Y-85750400D03*
X155647600Y-85750400D03*
X156497600Y-85750400D03*
X157347600Y-85750400D03*
X158197600Y-85750400D03*
D31*
X152247600Y-78750400D03*
D11*
X159247600Y-85750400D03*
X159247600Y-71750400D03*
X145247600Y-71750400D03*
X145247600Y-85750400D03*
D31*
X153897600Y-80400400D03*
X153897600Y-78750400D03*
X153897600Y-77100400D03*
X152247600Y-77100400D03*
X150597600Y-77100400D03*
X150597600Y-78750400D03*
X150597600Y-80400400D03*
X152247600Y-80400400D03*
%TD*%
D32*
%TO.C,U2*%
X155522400Y-68404100D03*
X155522400Y-66104100D03*
D33*
X149222400Y-66104100D03*
D32*
X155522400Y-63804100D03*
%TD*%
D27*
%TO.C,R4*%
X145590900Y-60274200D03*
X143765900Y-60274200D03*
%TD*%
D34*
%TO.C,R2*%
X162001200Y-81864900D03*
X162001200Y-80039900D03*
%TD*%
%TO.C,R1*%
X142519400Y-87900300D03*
X142519400Y-86075300D03*
%TD*%
D35*
%TO.C,R3*%
X159539300Y-60198000D03*
X161364300Y-60198000D03*
%TD*%
M02*
